<?xml version="1.0" encoding="UTF-8" standalone="no"?>
<!DOCTYPE svg PUBLIC "-//W3C//DTD SVG 1.1//EN"
 "http://www.w3.org/Graphics/SVG/1.1/DTD/svg11.dtd">
<!-- Generated by graphviz version 15.0.0 (20260523.1842)
 -->
<!-- Title: ER Pages: 1 -->
<svg width="804pt" height="304pt"
 viewBox="0.00 0.00 804.00 304.00" xmlns="http://www.w3.org/2000/svg" xmlns:xlink="http://www.w3.org/1999/xlink">
<g id="graph0" class="graph" transform="scale(1 1) rotate(0) translate(4 300)">
<title>ER</title>
<polygon fill="white" stroke="none" points="-4,4 -4,-300 800,-300 800,4 -4,4"/>
<text xml:space="preserve" text-anchor="start" x="320" y="-279.7" font-family="STHeiti Medium" font-weight="bold" font-size="14.00">校园外卖配送系统 E&#45;R 图</text>
<!-- 用户 -->
<g id="node1" class="node">
<title>用户</title>
<path fill="#fffbf5" stroke="#d97707" d="M140.5,-273C140.5,-273 12,-273 12,-273 6,-273 0,-267 0,-261 0,-261 0,-193 0,-193 0,-187 6,-181 12,-181 12,-181 140.5,-181 140.5,-181 146.5,-181 152.5,-187 152.5,-193 152.5,-193 152.5,-261 152.5,-261 152.5,-267 146.5,-273 140.5,-273"/>
<text xml:space="preserve" text-anchor="start" x="47" y="-256.7" font-family="STHeiti Medium" font-size="14.00"> &#160;&#160;&#160;&#160;&#160;&#160;&#160;</text>
<text xml:space="preserve" text-anchor="start" x="77" y="-256.7" font-family="STHeiti Medium" font-weight="bold" font-size="14.00">用户</text>
<text xml:space="preserve" text-anchor="start" x="18.5" y="-242.7" font-family="STHeiti Medium" font-size="14.00"> &#160;&#160;&#160;&#160;&#160;&#160;&#160;──────</text>
<text xml:space="preserve" text-anchor="start" x="24.5" y="-228.7" font-family="STHeiti Medium" font-size="14.00"> &#160;&#160;&#160;&#160;&#160;&#160;&#160;</text>
<text xml:space="preserve" text-anchor="start" x="54.5" y="-228.7" font-family="STHeiti Medium" text-decoration="underline" font-size="14.00">用户号</text>
<text xml:space="preserve" text-anchor="start" x="97.25" y="-228.7" font-family="STHeiti Medium" font-size="14.00"> (PK)</text>
<text xml:space="preserve" text-anchor="start" x="47" y="-214.7" font-family="STHeiti Medium" font-size="14.00"> &#160;&#160;&#160;&#160;&#160;&#160;&#160;姓名</text>
<text xml:space="preserve" text-anchor="start" x="39.88" y="-200.7" font-family="STHeiti Medium" font-size="14.00"> &#160;&#160;&#160;&#160;&#160;&#160;&#160;手机号</text>
<text xml:space="preserve" text-anchor="start" x="8" y="-186.7" font-family="STHeiti Medium" font-size="14.00"> &#160;&#160;&#160;&#160;&#160;&#160;&#160;所在宿舍/地址 &#160;&#160;&#160;</text>
</g>
<!-- 下单 -->
<g id="node6" class="node">
<title>下单</title>
<polygon fill="#f0e4c9" stroke="#5c3a21" points="242.75,-265 194.5,-227 242.75,-189 291,-227 242.75,-265"/>
<text xml:space="preserve" text-anchor="middle" x="242.75" y="-228.7" font-family="STHeiti Medium" font-size="14.00">下单</text>
<text xml:space="preserve" text-anchor="middle" x="242.75" y="-213.7" font-family="STHeiti Medium" font-size="14.00">(1:N)</text>
</g>
<!-- 用户&#45;&gt;下单 -->
<g id="edge1" class="edge">
<title>用户&#45;&gt;下单</title>
<path fill="none" stroke="#5c3a21" d="M152.76,-227C162.73,-227 172.83,-227 182.47,-227"/>
<polygon fill="#5c3a21" stroke="#5c3a21" points="182.45,-230.5 192.45,-227 182.45,-223.5 182.45,-230.5"/>
<text xml:space="preserve" text-anchor="middle" x="173.5" y="-228.55" font-family="STHeiti Medium" font-size="11.00">1</text>
</g>
<!-- 商家 -->
<g id="node2" class="node">
<title>商家</title>
<path fill="#fffbf5" stroke="#d97707" d="M130,-150C130,-150 22.5,-150 22.5,-150 16.5,-150 10.5,-144 10.5,-138 10.5,-138 10.5,-70 10.5,-70 10.5,-64 16.5,-58 22.5,-58 22.5,-58 130,-58 130,-58 136,-58 142,-64 142,-70 142,-70 142,-138 142,-138 142,-144 136,-150 130,-150"/>
<text xml:space="preserve" text-anchor="start" x="47" y="-133.7" font-family="STHeiti Medium" font-size="14.00"> &#160;&#160;&#160;&#160;&#160;&#160;&#160;</text>
<text xml:space="preserve" text-anchor="start" x="77" y="-133.7" font-family="STHeiti Medium" font-weight="bold" font-size="14.00">商家</text>
<text xml:space="preserve" text-anchor="start" x="18.5" y="-119.7" font-family="STHeiti Medium" font-size="14.00"> &#160;&#160;&#160;&#160;&#160;&#160;&#160;──────</text>
<text xml:space="preserve" text-anchor="start" x="24.5" y="-105.7" font-family="STHeiti Medium" font-size="14.00"> &#160;&#160;&#160;&#160;&#160;&#160;&#160;</text>
<text xml:space="preserve" text-anchor="start" x="54.5" y="-105.7" font-family="STHeiti Medium" text-decoration="underline" font-size="14.00">商家号</text>
<text xml:space="preserve" text-anchor="start" x="97.25" y="-105.7" font-family="STHeiti Medium" font-size="14.00"> (PK)</text>
<text xml:space="preserve" text-anchor="start" x="39.88" y="-91.7" font-family="STHeiti Medium" font-size="14.00"> &#160;&#160;&#160;&#160;&#160;&#160;&#160;商家名</text>
<text xml:space="preserve" text-anchor="start" x="32.75" y="-77.7" font-family="STHeiti Medium" font-size="14.00"> &#160;&#160;&#160;&#160;&#160;&#160;&#160;商家地址</text>
<text xml:space="preserve" text-anchor="start" x="25.25" y="-63.7" font-family="STHeiti Medium" font-size="14.00"> &#160;&#160;&#160;&#160;&#160;&#160;&#160;营业状态 &#160;&#160;&#160;</text>
</g>
<!-- 接单 -->
<g id="node7" class="node">
<title>接单</title>
<polygon fill="#f0e4c9" stroke="#5c3a21" points="242.75,-171 194.5,-133 242.75,-95 291,-133 242.75,-171"/>
<text xml:space="preserve" text-anchor="middle" x="242.75" y="-134.7" font-family="STHeiti Medium" font-size="14.00">接单</text>
<text xml:space="preserve" text-anchor="middle" x="242.75" y="-119.7" font-family="STHeiti Medium" font-size="14.00">(1:N)</text>
</g>
<!-- 商家&#45;&gt;接单 -->
<g id="edge3" class="edge">
<title>商家&#45;&gt;接单</title>
<path fill="none" stroke="#5c3a21" d="M142.26,-115.46C158.74,-118.37 176.18,-121.44 191.78,-124.19"/>
<polygon fill="#5c3a21" stroke="#5c3a21" points="190.83,-127.58 201.29,-125.87 192.05,-120.68 190.83,-127.58"/>
<text xml:space="preserve" text-anchor="middle" x="173.5" y="-122.65" font-family="STHeiti Medium" font-size="11.00">1</text>
</g>
<!-- 属于 -->
<g id="node8" class="node">
<title>属于</title>
<polygon fill="#f0e4c9" stroke="#5c3a21" points="242.75,-77 194.5,-39 242.75,-1 291,-39 242.75,-77"/>
<text xml:space="preserve" text-anchor="middle" x="242.75" y="-40.7" font-family="STHeiti Medium" font-size="14.00">属于</text>
<text xml:space="preserve" text-anchor="middle" x="242.75" y="-25.7" font-family="STHeiti Medium" font-size="14.00">(N:1)</text>
</g>
<!-- 商家&#45;&gt;属于 -->
<g id="edge5" class="edge">
<title>商家&#45;&gt;属于</title>
<path fill="none" stroke="#5c3a21" d="M142.26,-78.31C161.6,-70.67 182.27,-62.5 199.73,-55.6"/>
<polygon fill="#5c3a21" stroke="#5c3a21" points="200.72,-58.98 208.73,-52.05 198.15,-52.47 200.72,-58.98"/>
<text xml:space="preserve" text-anchor="middle" x="173.5" y="-67.23" font-family="STHeiti Medium" font-size="11.00">1</text>
</g>
<!-- 菜品 -->
<g id="node3" class="node">
<title>菜品</title>
<path fill="#fffbf5" stroke="#d97707" d="M455.12,-78C455.12,-78 347.62,-78 347.62,-78 341.62,-78 335.62,-72 335.62,-66 335.62,-66 335.62,-12 335.62,-12 335.62,-6 341.62,0 347.62,0 347.62,0 455.12,0 455.12,0 461.12,0 467.12,-6 467.12,-12 467.12,-12 467.12,-66 467.12,-66 467.12,-72 461.12,-78 455.12,-78"/>
<text xml:space="preserve" text-anchor="start" x="372.12" y="-61.7" font-family="STHeiti Medium" font-size="14.00"> &#160;&#160;&#160;&#160;&#160;&#160;&#160;</text>
<text xml:space="preserve" text-anchor="start" x="402.12" y="-61.7" font-family="STHeiti Medium" font-weight="bold" font-size="14.00">菜品</text>
<text xml:space="preserve" text-anchor="start" x="343.62" y="-47.7" font-family="STHeiti Medium" font-size="14.00"> &#160;&#160;&#160;&#160;&#160;&#160;&#160;──────</text>
<text xml:space="preserve" text-anchor="start" x="349.62" y="-33.7" font-family="STHeiti Medium" font-size="14.00"> &#160;&#160;&#160;&#160;&#160;&#160;&#160;</text>
<text xml:space="preserve" text-anchor="start" x="379.62" y="-33.7" font-family="STHeiti Medium" text-decoration="underline" font-size="14.00">菜品号</text>
<text xml:space="preserve" text-anchor="start" x="422.38" y="-33.7" font-family="STHeiti Medium" font-size="14.00"> (PK)</text>
<text xml:space="preserve" text-anchor="start" x="365" y="-19.7" font-family="STHeiti Medium" font-size="14.00"> &#160;&#160;&#160;&#160;&#160;&#160;&#160;菜品名</text>
<text xml:space="preserve" text-anchor="start" x="364.62" y="-5.7" font-family="STHeiti Medium" font-size="14.00"> &#160;&#160;&#160;&#160;&#160;&#160;&#160;单价 &#160;&#160;&#160;</text>
</g>
<!-- 骑手 -->
<g id="node4" class="node">
<title>骑手</title>
<path fill="#fffbf5" stroke="#d97707" d="M784,-225C784,-225 676.5,-225 676.5,-225 670.5,-225 664.5,-219 664.5,-213 664.5,-213 664.5,-145 664.5,-145 664.5,-139 670.5,-133 676.5,-133 676.5,-133 784,-133 784,-133 790,-133 796,-139 796,-145 796,-145 796,-213 796,-213 796,-219 790,-225 784,-225"/>
<text xml:space="preserve" text-anchor="start" x="701" y="-208.7" font-family="STHeiti Medium" font-size="14.00"> &#160;&#160;&#160;&#160;&#160;&#160;&#160;</text>
<text xml:space="preserve" text-anchor="start" x="731" y="-208.7" font-family="STHeiti Medium" font-weight="bold" font-size="14.00">骑手</text>
<text xml:space="preserve" text-anchor="start" x="672.5" y="-194.7" font-family="STHeiti Medium" font-size="14.00"> &#160;&#160;&#160;&#160;&#160;&#160;&#160;──────</text>
<text xml:space="preserve" text-anchor="start" x="678.5" y="-180.7" font-family="STHeiti Medium" font-size="14.00"> &#160;&#160;&#160;&#160;&#160;&#160;&#160;</text>
<text xml:space="preserve" text-anchor="start" x="708.5" y="-180.7" font-family="STHeiti Medium" text-decoration="underline" font-size="14.00">骑手号</text>
<text xml:space="preserve" text-anchor="start" x="751.25" y="-180.7" font-family="STHeiti Medium" font-size="14.00"> (PK)</text>
<text xml:space="preserve" text-anchor="start" x="701" y="-166.7" font-family="STHeiti Medium" font-size="14.00"> &#160;&#160;&#160;&#160;&#160;&#160;&#160;姓名</text>
<text xml:space="preserve" text-anchor="start" x="693.88" y="-152.7" font-family="STHeiti Medium" font-size="14.00"> &#160;&#160;&#160;&#160;&#160;&#160;&#160;手机号</text>
<text xml:space="preserve" text-anchor="start" x="679.25" y="-138.7" font-family="STHeiti Medium" font-size="14.00"> &#160;&#160;&#160;&#160;&#160;&#160;&#160;当前状态 &#160;&#160;&#160;</text>
</g>
<!-- 订单 -->
<g id="node5" class="node">
<title>订单</title>
<path fill="#fffbf5" stroke="#d97707" d="M455.5,-239C455.5,-239 347.25,-239 347.25,-239 341.25,-239 335.25,-233 335.25,-227 335.25,-227 335.25,-131 335.25,-131 335.25,-125 341.25,-119 347.25,-119 347.25,-119 455.5,-119 455.5,-119 461.5,-119 467.5,-125 467.5,-131 467.5,-131 467.5,-227 467.5,-227 467.5,-233 461.5,-239 455.5,-239"/>
<text xml:space="preserve" text-anchor="start" x="372.12" y="-222.7" font-family="STHeiti Medium" font-size="14.00"> &#160;&#160;&#160;&#160;&#160;&#160;&#160;</text>
<text xml:space="preserve" text-anchor="start" x="402.12" y="-222.7" font-family="STHeiti Medium" font-weight="bold" font-size="14.00">订单</text>
<text xml:space="preserve" text-anchor="start" x="343.62" y="-208.7" font-family="STHeiti Medium" font-size="14.00"> &#160;&#160;&#160;&#160;&#160;&#160;&#160;──────</text>
<text xml:space="preserve" text-anchor="start" x="349.62" y="-194.7" font-family="STHeiti Medium" font-size="14.00"> &#160;&#160;&#160;&#160;&#160;&#160;&#160;</text>
<text xml:space="preserve" text-anchor="start" x="379.62" y="-194.7" font-family="STHeiti Medium" text-decoration="underline" font-size="14.00">订单号</text>
<text xml:space="preserve" text-anchor="start" x="422.38" y="-194.7" font-family="STHeiti Medium" font-size="14.00"> (PK)</text>
<text xml:space="preserve" text-anchor="start" x="357.88" y="-180.7" font-family="STHeiti Medium" font-size="14.00"> &#160;&#160;&#160;&#160;&#160;&#160;&#160;下单时间</text>
<text xml:space="preserve" text-anchor="start" x="343.62" y="-166.7" font-family="STHeiti Medium" font-size="14.00"> &#160;&#160;&#160;&#160;&#160;&#160;&#160;期望送达时间</text>
<text xml:space="preserve" text-anchor="start" x="357.88" y="-152.7" font-family="STHeiti Medium" font-size="14.00"> &#160;&#160;&#160;&#160;&#160;&#160;&#160;配送地址</text>
<text xml:space="preserve" text-anchor="start" x="357.88" y="-138.7" font-family="STHeiti Medium" font-size="14.00"> &#160;&#160;&#160;&#160;&#160;&#160;&#160;订单状态</text>
<text xml:space="preserve" text-anchor="start" x="343.25" y="-124.7" font-family="STHeiti Medium" font-size="14.00"> &#160;&#160;&#160;&#160;&#160;&#160;&#160;订单总金额 &#160;&#160;&#160;</text>
</g>
<!-- 配送 -->
<g id="node9" class="node">
<title>配送</title>
<polygon fill="#f0e4c9" stroke="#5c3a21" points="566.75,-217 513.25,-179 566.75,-141 620.25,-179 566.75,-217"/>
<text xml:space="preserve" text-anchor="middle" x="566.75" y="-180.7" font-family="STHeiti Medium" font-size="14.00">配送</text>
<text xml:space="preserve" text-anchor="middle" x="566.75" y="-165.7" font-family="STHeiti Medium" font-size="14.00">(M:N)</text>
</g>
<!-- 订单&#45;&gt;配送 -->
<g id="edge7" class="edge">
<title>订单&#45;&gt;配送</title>
<path fill="none" stroke="#5c3a21" d="M467.88,-179C478.89,-179 490.3,-179 501.28,-179"/>
<polygon fill="#5c3a21" stroke="#5c3a21" points="501.01,-182.5 511.01,-179 501.01,-175.5 501.01,-182.5"/>
<text xml:space="preserve" text-anchor="middle" x="490.38" y="-180.55" font-family="STHeiti Medium" font-size="11.00">M</text>
</g>
<!-- 下单&#45;&gt;订单 -->
<g id="edge2" class="edge">
<title>下单&#45;&gt;订单</title>
<path fill="none" stroke="#5c3a21" d="M278.12,-216.47C291.79,-212.28 308.09,-207.28 324.27,-202.32"/>
<polygon fill="#5c3a21" stroke="#5c3a21" points="324.87,-205.8 333.41,-199.52 322.82,-199.11 324.87,-205.8"/>
<text xml:space="preserve" text-anchor="middle" x="313.12" y="-207.42" font-family="STHeiti Medium" font-size="11.00">N</text>
</g>
<!-- 接单&#45;&gt;订单 -->
<g id="edge4" class="edge">
<title>接单&#45;&gt;订单</title>
<path fill="none" stroke="#5c3a21" d="M278.51,-143.21C291.98,-147.17 307.98,-151.86 323.87,-156.53"/>
<polygon fill="#5c3a21" stroke="#5c3a21" points="322.8,-159.86 333.38,-159.32 324.77,-153.15 322.8,-159.86"/>
<text xml:space="preserve" text-anchor="middle" x="313.12" y="-154.8" font-family="STHeiti Medium" font-size="11.00">N</text>
</g>
<!-- 属于&#45;&gt;菜品 -->
<g id="edge6" class="edge">
<title>属于&#45;&gt;菜品</title>
<path fill="none" stroke="#5c3a21" d="M291.59,-39C301.81,-39 312.84,-39 323.83,-39"/>
<polygon fill="#5c3a21" stroke="#5c3a21" points="323.72,-42.5 333.72,-39 323.72,-35.5 323.72,-42.5"/>
<text xml:space="preserve" text-anchor="middle" x="313.12" y="-40.55" font-family="STHeiti Medium" font-size="11.00">N</text>
</g>
<!-- 配送&#45;&gt;骑手 -->
<g id="edge8" class="edge">
<title>配送&#45;&gt;骑手</title>
<path fill="none" stroke="#5c3a21" d="M621.08,-179C631.2,-179 641.97,-179 652.65,-179"/>
<polygon fill="#5c3a21" stroke="#5c3a21" points="652.65,-182.5 662.65,-179 652.65,-175.5 652.65,-182.5"/>
<text xml:space="preserve" text-anchor="middle" x="642.38" y="-180.55" font-family="STHeiti Medium" font-size="11.00">N</text>
</g>
</g>
</svg>
